<svg width="869" height="450" viewBox="0 0 869 450" fill="none" xmlns="http://www.w3.org/2000/svg">
<path fill-rule="evenodd" clip-rule="evenodd" d="M168 166C174.627 166 180 171.373 180 178C180 184.627 174.627 190 168 190H12C5.37258 190 0 184.627 0 178C0 171.373 5.37258 166 12 166H168ZM388 166C394.627 166 400 171.373 400 178C400 184.627 394.627 190 388 190H310L310 190.01C303.605 190.272 298.5 195.54 298.5 202C298.5 208.46 303.605 213.728 310 213.99L310 214H470C476.627 214 482 219.373 482 226C482 232.627 476.627 238 470 238H213C206.373 238 201 232.627 201 226C201 219.373 206.373 214 213 214H262C268.627 214 274 208.627 274 202C274 195.373 268.627 190 262 190H232C225.373 190 220 184.627 220 178C220 171.373 225.373 166 232 166H388ZM183 262C189.627 262 195 267.373 195 274C195 280.627 189.627 286 183 286H110C103.373 286 98 280.627 98 274C98 267.373 103.373 262 110 262H183ZM470 262C476.627 262 482 267.373 482 274C482 280.627 476.627 286 470 286H397C390.373 286 385 280.627 385 274C385 267.373 390.373 262 397 262H470ZM734 274C734 267.373 728.627 262 722 262H556C549.373 262 544 267.373 544 274C544 280.627 549.373 286 556 286H722C728.627 286 734 280.627 734 274ZM544 190C550.627 190 556 195.373 556 202C556 208.627 550.627 214 544 214H535C528.373 214 523 219.373 523 226C523 232.627 528.373 238 535 238H792C798.627 238 804 232.627 804 226C804 219.373 798.627 214 792 214H592L592 213.99C585.605 213.728 580.5 208.46 580.5 202C580.5 195.54 585.605 190.272 592 190.01L592 190H616C622.627 190 628 184.627 628 178C628 171.373 622.627 166 616 166H460C453.373 166 448 171.373 448 178C448 184.627 453.373 190 460 190H544ZM842 178C842 171.373 836.627 166 830 166H674C667.373 166 662 171.373 662 178C662 184.627 667.373 190 674 190H830C836.627 190 842 184.627 842 178Z" fill="#356CEE"/>
</svg>
