<svg width="478" height="450" viewBox="0 0 478 450" fill="none" xmlns="http://www.w3.org/2000/svg">
<path d="M43 274C43 267.373 37.6274 262 31 262H12C5.37258 262 0 256.627 0 250C0 243.373 5.37258 238 12 238H91C97.6274 238 103 243.373 103 250C103 256.627 97.6274 262 91 262H88L88 262.01C81.6046 262.272 76.5003 267.54 76.5003 274C76.5003 280.46 81.6046 285.728 88 285.99L88 286H91C97.6274 286 103 291.373 103 298C103 304.627 97.6274 310 91 310H30C23.3726 310 18 304.627 18 298C18 291.373 23.3726 286 30 286H31C37.6274 286 43 280.627 43 274Z" fill="#2255CA"/>
</svg>
