<svg width="869" height="450" viewBox="0 0 869 450" fill="none" xmlns="http://www.w3.org/2000/svg">
<g clip-path="url(#clip0_58_21)">
<path opacity="0.4" fill-rule="evenodd" clip-rule="evenodd" d="M168 22C174.627 22 180 27.3726 180 34C180 40.6274 174.627 46 168 46H12C5.37258 46 0 40.6274 0 34C0 27.3726 5.37258 22 12 22H168ZM388 22C394.627 22 400 27.3726 400 34C400 40.6274 394.627 46 388 46H310L310 46.0102C303.605 46.2721 298.5 51.5399 298.5 58C298.5 64.4601 303.605 69.7279 310 69.9898L310 70H470C476.627 70 482 75.3726 482 82C482 88.6274 476.627 94 470 94H213C206.373 94 201 88.6274 201 82C201 75.3726 206.373 70 213 70H262C268.627 70 274 64.6274 274 58C274 51.3726 268.627 46 262 46H232C225.373 46 220 40.6274 220 34C220 27.3726 225.373 22 232 22H388ZM183 118C189.627 118 195 123.373 195 130C195 136.627 189.627 142 183 142H110C103.373 142 98 136.627 98 130C98 123.373 103.373 118 110 118H183ZM470 118C476.627 118 482 123.373 482 130C482 136.627 476.627 142 470 142H397C390.373 142 385 136.627 385 130C385 123.373 390.373 118 397 118H470ZM734 130C734 123.373 728.627 118 722 118H556C549.373 118 544 123.373 544 130C544 136.627 549.373 142 556 142H722C728.627 142 734 136.627 734 130ZM544 46C550.627 46 556 51.3726 556 58C556 64.6274 550.627 70 544 70H535C528.373 70 523 75.3726 523 82C523 88.6274 528.373 94 535 94H792C798.627 94 804 88.6274 804 82C804 75.3726 798.627 70 792 70H592L592 69.9898C585.605 69.7279 580.5 64.4601 580.5 58C580.5 51.5399 585.605 46.2721 592 46.0102L592 46H616C622.627 46 628 40.6274 628 34C628 27.3726 622.627 22 616 22H460C453.373 22 448 27.3726 448 34C448 40.6274 453.373 46 460 46H544ZM842 34C842 27.3726 836.627 22 830 22H674C667.373 22 662 27.3726 662 34C662 40.6274 667.373 46 674 46H830C836.627 46 842 40.6274 842 34Z" fill="#356CEE"/>
<path opacity="0.4" fill-rule="evenodd" clip-rule="evenodd" d="M168 334C174.627 334 180 339.373 180 346C180 352.627 174.627 358 168 358H12C5.37258 358 0 352.627 0 346C0 339.373 5.37258 334 12 334H168ZM388 334C394.627 334 400 339.373 400 346C400 352.627 394.627 358 388 358H310L310 358.01C303.605 358.272 298.5 363.54 298.5 370C298.5 376.46 303.605 381.728 310 381.99L310 382H470C476.627 382 482 387.373 482 394C482 400.627 476.627 406 470 406H213C206.373 406 201 400.627 201 394C201 387.373 206.373 382 213 382H262C268.627 382 274 376.627 274 370C274 363.373 268.627 358 262 358H232C225.373 358 220 352.627 220 346C220 339.373 225.373 334 232 334H388ZM183 430C189.627 430 195 435.373 195 442C195 448.627 189.627 454 183 454H110C103.373 454 98 448.627 98 442C98 435.373 103.373 430 110 430H183ZM470 430C476.627 430 482 435.373 482 442C482 448.627 476.627 454 470 454H397C390.373 454 385 448.627 385 442C385 435.373 390.373 430 397 430H470ZM734 442C734 435.373 728.627 430 722 430H556C549.373 430 544 435.373 544 442C544 448.627 549.373 454 556 454H722C728.627 454 734 448.627 734 442ZM544 358C550.627 358 556 363.373 556 370C556 376.627 550.627 382 544 382H535C528.373 382 523 387.373 523 394C523 400.627 528.373 406 535 406H792C798.627 406 804 400.627 804 394C804 387.373 798.627 382 792 382H592L592 381.99C585.605 381.728 580.5 376.46 580.5 370C580.5 363.54 585.605 358.272 592 358.01L592 358H616C622.627 358 628 352.627 628 346C628 339.373 622.627 334 616 334H460C453.373 334 448 339.373 448 346C448 352.627 453.373 358 460 358H544ZM842 346C842 339.373 836.627 334 830 334H674C667.373 334 662 339.373 662 346C662 352.627 667.373 358 674 358H830C836.627 358 842 352.627 842 346Z" fill="#356CEE"/>
</g>
<defs>
<clipPath id="clip0_58_21">
<rect width="869" height="450" fill="white"/>
</clipPath>
</defs>
</svg>
