<svg width="866" height="458" viewBox="0 0 866 458" fill="none" xmlns="http://www.w3.org/2000/svg">
<path fill-rule="evenodd" clip-rule="evenodd" d="M168 277C174.627 277 180 271.627 180 265C180 258.373 174.627 253 168 253L12 253C5.37258 253 0 258.373 0 265C0 271.627 5.37258 277 12 277H168ZM388 277C394.627 277 400 271.627 400 265C400 258.373 394.627 253 388 253L310 253L310 252.99C303.605 252.728 298.5 247.46 298.5 241C298.5 234.54 303.605 229.272 310 229.01L310 229L470 229C476.627 229 482 223.627 482 217C482 210.373 476.627 205 470 205L213 205C206.373 205 201 210.373 201 217C201 223.627 206.373 229 213 229H262C268.627 229 274 234.373 274 241C274 247.627 268.627 253 262 253H232C225.373 253 220 258.373 220 265C220 271.627 225.373 277 232 277L388 277ZM183 181C189.627 181 195 175.627 195 169C195 162.373 189.627 157 183 157L110 157C103.373 157 98 162.373 98 169C98 175.627 103.373 181 110 181L183 181ZM470 181C476.627 181 482 175.627 482 169C482 162.373 476.627 157 470 157H397C390.373 157 385 162.373 385 169C385 175.627 390.373 181 397 181H470ZM734 169C734 175.627 728.627 181 722 181L556 181C549.373 181 544 175.627 544 169C544 162.373 549.373 157 556 157L722 157C728.627 157 734 162.373 734 169ZM544 253C550.627 253 556 247.627 556 241C556 234.373 550.627 229 544 229H535C528.373 229 523 223.627 523 217C523 210.373 528.373 205 535 205L792 205C798.627 205 804 210.373 804 217C804 223.627 798.627 229 792 229L592 229L592 229.01C585.605 229.272 580.5 234.54 580.5 241C580.5 247.46 585.605 252.728 592 252.99L592 253L616 253C622.627 253 628 258.373 628 265C628 271.627 622.627 277 616 277H460C453.373 277 448 271.627 448 265C448 258.373 453.373 253 460 253H544ZM842 265C842 271.627 836.627 277 830 277L674 277C667.373 277 662 271.627 662 265C662 258.373 667.373 253 674 253L830 253C836.627 253 842 258.373 842 265Z" fill="#50DECD"/>
</svg>
