<svg width="870" height="458" viewBox="0 0 870 458" fill="none" xmlns="http://www.w3.org/2000/svg">
<path fill-rule="evenodd" clip-rule="evenodd" d="M168 301C174.627 301 180 306.373 180 313C180 319.627 174.627 325 168 325H12C5.37258 325 0 319.627 0 313C0 306.373 5.37258 301 12 301H168ZM388 301C394.627 301 400 306.373 400 313C400 319.627 394.627 325 388 325H310L310 325.01C303.605 325.272 298.5 330.54 298.5 337C298.5 343.46 303.605 348.728 310 348.99L310 349H470C476.627 349 482 354.373 482 361C482 367.627 476.627 373 470 373H213C206.373 373 201 367.627 201 361C201 354.373 206.373 349 213 349H262C268.627 349 274 343.627 274 337C274 330.373 268.627 325 262 325H232C225.373 325 220 319.627 220 313C220 306.373 225.373 301 232 301H388ZM183 397C189.627 397 195 402.373 195 409C195 415.627 189.627 421 183 421H110C103.373 421 98 415.627 98 409C98 402.373 103.373 397 110 397H183ZM470 397C476.627 397 482 402.373 482 409C482 415.627 476.627 421 470 421H397C390.373 421 385 415.627 385 409C385 402.373 390.373 397 397 397H470ZM734 409C734 402.373 728.627 397 722 397H556C549.373 397 544 402.373 544 409C544 415.627 549.373 421 556 421H722C728.627 421 734 415.627 734 409ZM544 325C550.627 325 556 330.373 556 337C556 343.627 550.627 349 544 349H535C528.373 349 523 354.373 523 361C523 367.627 528.373 373 535 373H792C798.627 373 804 367.627 804 361C804 354.373 798.627 349 792 349H592L592 348.99C585.605 348.728 580.5 343.46 580.5 337C580.5 330.54 585.605 325.272 592 325.01L592 325H616C622.627 325 628 319.627 628 313C628 306.373 622.627 301 616 301H460C453.373 301 448 306.373 448 313C448 319.627 453.373 325 460 325H544ZM842 313C842 306.373 836.627 301 830 301H674C667.373 301 662 306.373 662 313C662 319.627 667.373 325 674 325H830C836.627 325 842 319.627 842 313Z" fill="#77FFF5"/>
</svg>
