<svg width="871" height="458" viewBox="0 0 871 458" fill="none" xmlns="http://www.w3.org/2000/svg">
<path fill-rule="evenodd" clip-rule="evenodd" d="M168 13C174.627 13 180 18.3726 180 25C180 31.6274 174.627 37 168 37H12C5.37258 37 0 31.6274 0 25C0 18.3726 5.37258 13 12 13H168ZM388 13C394.627 13 400 18.3726 400 25C400 31.6274 394.627 37 388 37H310L310 37.0102C303.605 37.2721 298.5 42.5399 298.5 49C298.5 55.4601 303.605 60.7279 310 60.9898L310 61H470C476.627 61 482 66.3726 482 73C482 79.6274 476.627 85 470 85H213C206.373 85 201 79.6274 201 73C201 66.3726 206.373 61 213 61H262C268.627 61 274 55.6274 274 49C274 42.3726 268.627 37 262 37H232C225.373 37 220 31.6274 220 25C220 18.3726 225.373 13 232 13H388ZM183 109C189.627 109 195 114.373 195 121C195 127.627 189.627 133 183 133H110C103.373 133 98 127.627 98 121C98 114.373 103.373 109 110 109H183ZM470 109C476.627 109 482 114.373 482 121C482 127.627 476.627 133 470 133H397C390.373 133 385 127.627 385 121C385 114.373 390.373 109 397 109H470ZM734 121C734 114.373 728.627 109 722 109H556C549.373 109 544 114.373 544 121C544 127.627 549.373 133 556 133H722C728.627 133 734 127.627 734 121ZM544 37C550.627 37 556 42.3726 556 49C556 55.6274 550.627 61 544 61H535C528.373 61 523 66.3726 523 73C523 79.6274 528.373 85 535 85H792C798.627 85 804 79.6274 804 73C804 66.3726 798.627 61 792 61H592L592 60.9898C585.605 60.7279 580.5 55.4601 580.5 49C580.5 42.5399 585.605 37.2721 592 37.0102L592 37H616C622.627 37 628 31.6274 628 25C628 18.3726 622.627 13 616 13H460C453.373 13 448 18.3726 448 25C448 31.6274 453.373 37 460 37H544ZM842 25C842 18.3726 836.627 13 830 13H674C667.373 13 662 18.3726 662 25C662 31.6274 667.373 37 674 37H830C836.627 37 842 31.6274 842 25Z" fill="#49CBC2"/>
</svg>
