<svg width="364" height="336" viewBox="0 0 364 336" fill="none" xmlns="http://www.w3.org/2000/svg">
<g clip-path="url(#clip0_50_13)">
<path fill-rule="evenodd" clip-rule="evenodd" d="M61 24C67.6274 24 73 29.3726 73 36C73 42.6274 67.6274 48 61 48H12C5.37258 48 0 53.3726 0 60C0 66.6274 5.37258 72 12 72H139C145.627 72 151 66.6274 151 60C151 53.3726 145.627 48 139 48H126L125.999 47.9897C119.604 47.727 114.5 42.4595 114.5 36C114.5 29.5405 119.604 24.273 125.999 24.0103L126 24H182C188.627 24 194 18.6274 194 12C194 5.37258 188.627 0 182 0H26C19.3726 0 14 5.37258 14 12C14 18.6274 19.3726 24 26 24H61ZM257 60C257 53.3726 251.627 48 245 48H240C233.373 48 228 53.3726 228 60C228 66.6274 233.373 72 240 72H245C251.627 72 257 66.6274 257 60Z" fill="#FF9B6B"/>
<path fill-rule="evenodd" clip-rule="evenodd" d="M168 312C174.627 312 180 317.373 180 324C180 330.627 174.627 336 168 336H119C112.373 336 107 341.373 107 348C107 354.627 112.373 360 119 360H246C252.627 360 258 354.627 258 348C258 341.373 252.627 336 246 336H233L232.999 335.99C226.604 335.727 221.5 330.46 221.5 324C221.5 317.54 226.604 312.273 232.999 312.01L233 312H289C295.627 312 301 306.627 301 300C301 293.373 295.627 288 289 288H133C126.373 288 121 293.373 121 300C121 306.627 126.373 312 133 312H168ZM364 348C364 341.373 358.627 336 352 336H347C340.373 336 335 341.373 335 348C335 354.627 340.373 360 347 360H352C358.627 360 364 354.627 364 348Z" fill="#FF9B6B"/>
</g>
<defs>
<clipPath id="clip0_50_13">
<rect width="364" height="336" fill="white"/>
</clipPath>
</defs>
</svg>
