<svg width="393" height="336" viewBox="0 0 393 336" fill="none" xmlns="http://www.w3.org/2000/svg">
<path fill-rule="evenodd" clip-rule="evenodd" d="M172 72C178.627 72 184 77.3726 184 84C184 90.6274 178.627 96 172 96H132C125.373 96 120 90.6274 120 84C120 77.3726 125.373 72 132 72H172ZM296 168C302.627 168 308 173.373 308 180C308 186.627 302.627 192 296 192H145L144.999 192.01C138.604 192.273 133.5 197.54 133.5 204C133.5 210.46 138.604 215.727 144.999 215.99L145 216H164C170.627 216 176 221.373 176 228C176 234.627 170.627 240 164 240H44C37.3726 240 32 234.627 32 228C32 221.373 37.3726 216 44 216H76C82.6274 216 88 210.627 88 204C88 197.373 82.6274 192 76 192H12C5.37258 192 0 186.627 0 180C0 173.373 5.37258 168 12 168H296ZM145 276C145 269.373 139.627 264 133 264H113C106.373 264 101 269.373 101 276C101 282.627 106.373 288 113 288H133C139.627 288 145 282.627 145 276ZM262 276C262 269.373 256.627 264 250 264H188C181.373 264 176 269.373 176 276C176 282.627 181.373 288 188 288H250C256.627 288 262 282.627 262 276ZM256 228C256 221.373 250.627 216 244 216H224C217.373 216 212 221.373 212 228C212 234.627 217.373 240 224 240H244C250.627 240 256 234.627 256 228ZM393 84C393 77.3726 387.627 72 381 72H341C334.373 72 329 77.3726 329 84C329 90.6274 334.373 96 341 96H381C387.627 96 393 90.6274 393 84Z" fill="#D04237"/>
</svg>
