<svg width="267" height="264" viewBox="0 0 267 264" fill="none" xmlns="http://www.w3.org/2000/svg">
<path fill-rule="evenodd" clip-rule="evenodd" d="M267 12C267 5.37258 261.627 0 255 0H197C190.373 0 185 5.37258 185 12C185 18.6274 190.373 24 197 24H255C261.627 24 267 18.6274 267 12ZM83 120C89.6274 120 95 125.373 95 132C95 138.627 89.6274 144 83 144H80C73.3726 144 68 149.373 68 156C68 162.627 73.3726 168 80 168H204C210.627 168 216 162.627 216 156C216 149.373 210.627 144 204 144H152L151.999 143.99C145.604 143.727 140.5 138.46 140.5 132C140.5 125.54 145.604 120.273 151.999 120.01L152 120H154C160.627 120 166 114.627 166 108C166 101.373 160.627 96 154 96H109L109 95.9898C102.605 95.7279 97.5 90.4601 97.5 84C97.5 77.5399 102.605 72.2721 109 72.0102L109 72H129C135.627 72 141 66.6274 141 60C141 53.3726 135.627 48 129 48H56C49.3726 48 44 53.3726 44 60C44 66.6274 49.3726 72 56 72H61C67.6274 72 73 77.3726 73 84C73 90.6274 67.6274 96 61 96H12C5.37258 96 0 101.373 0 108C0 114.627 5.37258 120 12 120H83ZM140 192C146.627 192 152 197.373 152 204C152 210.627 146.627 216 140 216C133.373 216 128 210.627 128 204C128 197.373 133.373 192 140 192ZM262 204C262 197.373 256.627 192 250 192H188C181.373 192 176 197.373 176 204C176 210.627 181.373 216 188 216H250C256.627 216 262 210.627 262 204ZM176 252C176 245.373 170.627 240 164 240H144C137.373 240 132 245.373 132 252C132 258.627 137.373 264 144 264H164C170.627 264 176 258.627 176 252ZM255 144C261.627 144 267 149.373 267 156C267 162.627 261.627 168 255 168C248.373 168 243 162.627 243 156C243 149.373 248.373 144 255 144ZM44 156C44 149.373 38.6274 144 32 144H12C5.37258 144 0 149.373 0 156C0 162.627 5.37258 168 12 168H32C38.6274 168 44 162.627 44 156ZM231 48C237.627 48 243 53.3726 243 60C243 66.6274 237.627 72 231 72H211C204.373 72 199 66.6274 199 60C199 53.3726 204.373 48 211 48H231Z" fill="#B1D5E2"/>
</svg>
