<svg width="267" height="290" viewBox="0 0 267 290" fill="none" xmlns="http://www.w3.org/2000/svg">
<path fill-rule="evenodd" clip-rule="evenodd" d="M267 25C267 18.3726 261.627 13 255 13H197C190.373 13 185 18.3726 185 25C185 31.6274 190.373 37 197 37H255C261.627 37 267 31.6274 267 25ZM83 133C89.6274 133 95 138.373 95 145C95 151.627 89.6274 157 83 157H80C73.3726 157 68 162.373 68 169C68 175.627 73.3726 181 80 181H204C210.627 181 216 175.627 216 169C216 162.373 210.627 157 204 157H152L151.999 156.99C145.604 156.727 140.5 151.46 140.5 145C140.5 138.54 145.604 133.273 151.999 133.01L152 133H154C160.627 133 166 127.627 166 121C166 114.373 160.627 109 154 109H109L109 108.99C102.605 108.728 97.5 103.46 97.5 97C97.5 90.5399 102.605 85.2721 109 85.0102L109 85H129C135.627 85 141 79.6274 141 73C141 66.3726 135.627 61 129 61H56C49.3726 61 44 66.3726 44 73C44 79.6274 49.3726 85 56 85H61C67.6274 85 73 90.3726 73 97C73 103.627 67.6274 109 61 109H12C5.37258 109 0 114.373 0 121C0 127.627 5.37258 133 12 133H83ZM140 205C146.627 205 152 210.373 152 217C152 223.627 146.627 229 140 229C133.373 229 128 223.627 128 217C128 210.373 133.373 205 140 205ZM262 217C262 210.373 256.627 205 250 205H188C181.373 205 176 210.373 176 217C176 223.627 181.373 229 188 229H250C256.627 229 262 223.627 262 217ZM176 265C176 258.373 170.627 253 164 253H144C137.373 253 132 258.373 132 265C132 271.627 137.373 277 144 277H164C170.627 277 176 271.627 176 265ZM255 157C261.627 157 267 162.373 267 169C267 175.627 261.627 181 255 181C248.373 181 243 175.627 243 169C243 162.373 248.373 157 255 157ZM44 169C44 162.373 38.6274 157 32 157H12C5.37258 157 0 162.373 0 169C0 175.627 5.37258 181 12 181H32C38.6274 181 44 175.627 44 169ZM231 61C237.627 61 243 66.3726 243 73C243 79.6274 237.627 85 231 85H211C204.373 85 199 79.6274 199 73C199 66.3726 204.373 61 211 61H231Z" fill="#B1D5E2"/>
</svg>
