<svg width="441" height="168" viewBox="0 0 441 168" fill="none" xmlns="http://www.w3.org/2000/svg">
<path fill-rule="evenodd" clip-rule="evenodd" d="M113 72C119.627 72 125 77.3726 125 84C125 90.6274 119.627 96 113 96H109C102.373 96 97 101.373 97 108C97 114.627 102.373 120 109 120H185C191.627 120 197 114.627 197 108C197 101.373 191.627 96 185 96H182L181.999 95.9897C175.604 95.727 170.5 90.4595 170.5 84C170.5 77.5405 175.604 72.273 181.999 72.0103L182 72H250C256.627 72 262 66.6274 262 60C262 53.3726 256.627 48 250 48H90L90.0004 47.9898C83.6047 47.7279 78.5 42.4601 78.5 36C78.5 29.5399 83.6047 24.2721 90.0004 24.0102L90 24H168C174.627 24 180 18.6274 180 12C180 5.37258 174.627 0 168 0H12C5.37258 0 0 5.37258 0 12C0 18.6274 5.37258 24 12 24H42C48.6274 24 54 29.3726 54 36C54 42.6274 48.6274 48 42 48H28C21.3726 48 16 53.3726 16 60C16 66.6274 21.3726 72 28 72H113ZM243 156C243 149.373 237.627 144 231 144H169C162.373 144 157 149.373 157 156C157 162.627 162.373 168 169 168H231C237.627 168 243 162.627 243 156ZM253 96C259.627 96 265 101.373 265 108C265 114.627 259.627 120 253 120H233C226.373 120 221 114.627 221 108C221 101.373 226.373 96 233 96H253ZM441 108C441 101.373 435.627 96 429 96H328C321.373 96 316 101.373 316 108C316 114.627 321.373 120 328 120H429C435.627 120 441 114.627 441 108ZM61 96C67.6274 96 73 101.373 73 108C73 114.627 67.6274 120 61 120H41C34.3726 120 29 114.627 29 108C29 101.373 34.3726 96 41 96H61ZM386 60C386 53.3726 380.627 48 374 48H354C347.373 48 342 53.3726 342 60C342 66.6274 347.373 72 354 72H374C380.627 72 386 66.6274 386 60Z" fill="#E29F58"/>
</svg>
