<svg width="521" height="360" viewBox="0 0 521 360" fill="none" xmlns="http://www.w3.org/2000/svg">
<path fill-rule="evenodd" clip-rule="evenodd" d="M375 12C375 5.37258 369.627 0 363 0H106C99.3726 0 94 5.37258 94 12C94 18.6274 99.3726 24 106 24H226C232.627 24 238 29.3726 238 36C238 42.6274 232.627 48 226 48H222C215.373 48 210 53.3726 210 60C210 66.6274 215.373 72 222 72H298C304.627 72 310 66.6274 310 60C310 53.3726 304.627 48 298 48H295L294.999 47.9897C288.604 47.727 283.5 42.4595 283.5 36C283.5 29.5405 288.604 24.273 294.999 24.0103L295 24H363C369.627 24 375 18.6274 375 12ZM356 108C356 101.373 350.627 96 344 96H282C275.373 96 270 101.373 270 108C270 114.627 275.373 120 282 120H344C350.627 120 356 114.627 356 108ZM56.5 144C63.1274 144 68.5 149.373 68.5 156C68.5 162.627 63.1274 168 56.5 168H12.5C5.87258 168 0.5 162.627 0.5 156C0.5 149.373 5.87258 144 12.5 144H56.5ZM368 156C368 149.373 362.627 144 356 144H125C118.373 144 113 149.373 113 156C113 162.627 118.373 168 125 168H195C201.627 168 207 173.373 207 180C207 186.627 201.627 192 195 192H186C179.373 192 174 197.373 174 204C174 210.627 179.373 216 186 216H328C334.627 216 340 221.373 340 228C340 234.627 334.627 240 328 240H322C315.373 240 310 245.373 310 252C310 258.627 315.373 264 322 264H398C404.627 264 410 258.627 410 252C410 245.373 404.627 240 398 240H397L396.999 239.99C390.604 239.727 385.5 234.46 385.5 228C385.5 221.54 390.604 216.273 396.999 216.01L397 216H417C423.627 216 429 210.627 429 204C429 197.373 423.627 192 417 192H337V191.99C330.605 191.727 325.5 186.46 325.5 180C325.5 173.54 330.605 168.273 337 168.01V168H356C362.627 168 368 162.627 368 156ZM388 300C388 293.373 382.627 288 376 288H145C138.373 288 133 293.373 133 300C133 306.627 138.373 312 145 312H186C192.627 312 198 317.373 198 324C198 330.627 192.627 336 186 336H182C175.373 336 170 341.373 170 348C170 354.627 175.373 360 182 360H258C264.627 360 270 354.627 270 348C270 341.373 264.627 336 258 336H255L254.999 335.99C248.604 335.727 243.5 330.46 243.5 324C243.5 317.54 248.604 312.273 254.999 312.01L255 312H376C382.627 312 388 306.627 388 300ZM183 240C189.627 240 195 245.373 195 252C195 258.627 189.627 264 183 264H107C100.373 264 95 258.627 95 252C95 245.373 100.373 240 107 240H183ZM521 204C521 197.373 515.627 192 509 192H468C461.373 192 456 197.373 456 204C456 210.627 461.373 216 468 216H509C515.627 216 521 210.627 521 204ZM205 96C211.627 96 217 101.373 217 108C217 114.627 211.627 120 205 120H185C178.373 120 173 114.627 173 108C173 101.373 178.373 96 185 96H205ZM366 48C372.627 48 378 53.3726 378 60C378 66.6274 372.627 72 366 72H346C339.373 72 334 66.6274 334 60C334 53.3726 339.373 48 346 48H366ZM186 60C186 53.3726 180.627 48 174 48H154C147.373 48 142 53.3726 142 60C142 66.6274 147.373 72 154 72H174C180.627 72 186 66.6274 186 60Z" fill="#FFE6AE"/>
</svg>
