<svg width="441" height="400" viewBox="0 0 441 400" fill="none" xmlns="http://www.w3.org/2000/svg">
<path fill-rule="evenodd" clip-rule="evenodd" d="M113 191C119.627 191 125 196.373 125 203C125 209.627 119.627 215 113 215H109C102.373 215 97 220.373 97 227C97 233.627 102.373 239 109 239H185C191.627 239 197 233.627 197 227C197 220.373 191.627 215 185 215H182L181.999 214.99C175.604 214.727 170.5 209.46 170.5 203C170.5 196.54 175.604 191.273 181.999 191.01L182 191H250C256.627 191 262 185.627 262 179C262 172.373 256.627 167 250 167H90L90.0004 166.99C83.6047 166.728 78.5 161.46 78.5 155C78.5 148.54 83.6047 143.272 90.0004 143.01L90 143H168C174.627 143 180 137.627 180 131C180 124.373 174.627 119 168 119H12C5.37258 119 0 124.373 0 131C0 137.627 5.37258 143 12 143H42C48.6274 143 54 148.373 54 155C54 161.627 48.6274 167 42 167H28C21.3726 167 16 172.373 16 179C16 185.627 21.3726 191 28 191H113ZM243 275C243 268.373 237.627 263 231 263H169C162.373 263 157 268.373 157 275C157 281.627 162.373 287 169 287H231C237.627 287 243 281.627 243 275ZM253 215C259.627 215 265 220.373 265 227C265 233.627 259.627 239 253 239H233C226.373 239 221 233.627 221 227C221 220.373 226.373 215 233 215H253ZM441 227C441 220.373 435.627 215 429 215H328C321.373 215 316 220.373 316 227C316 233.627 321.373 239 328 239H429C435.627 239 441 233.627 441 227ZM61 215C67.6274 215 73 220.373 73 227C73 233.627 67.6274 239 61 239H41C34.3726 239 29 233.627 29 227C29 220.373 34.3726 215 41 215H61ZM386 179C386 172.373 380.627 167 374 167H354C347.373 167 342 172.373 342 179C342 185.627 347.373 191 354 191H374C380.627 191 386 185.627 386 179Z" fill="#E29F58"/>
</svg>
