<svg width="521" height="400" viewBox="0 0 521 400" fill="none" xmlns="http://www.w3.org/2000/svg">
<path fill-rule="evenodd" clip-rule="evenodd" d="M374.5 25C374.5 18.3726 369.127 13 362.5 13H105.5C98.8726 13 93.5 18.3726 93.5 25C93.5 31.6274 98.8726 37 105.5 37H225.5C232.127 37 237.5 42.3726 237.5 49C237.5 55.6274 232.127 61 225.5 61H221.5C214.873 61 209.5 66.3726 209.5 73C209.5 79.6274 214.873 85 221.5 85H297.5C304.127 85 309.5 79.6274 309.5 73C309.5 66.3726 304.127 61 297.5 61H294.5L294.499 60.9897C288.104 60.727 283 55.4595 283 49C283 42.5405 288.104 37.273 294.499 37.0103L294.5 37H362.5C369.127 37 374.5 31.6274 374.5 25ZM355.5 121C355.5 114.373 350.127 109 343.5 109H281.5C274.873 109 269.5 114.373 269.5 121C269.5 127.627 274.873 133 281.5 133H343.5C350.127 133 355.5 127.627 355.5 121ZM56 157C62.6274 157 68 162.373 68 169C68 175.627 62.6274 181 56 181H12C5.37258 181 0 175.627 0 169C0 162.373 5.37258 157 12 157H56ZM367.5 169C367.5 162.373 362.127 157 355.5 157H124.5C117.873 157 112.5 162.373 112.5 169C112.5 175.627 117.873 181 124.5 181H194.5C201.127 181 206.5 186.373 206.5 193C206.5 199.627 201.127 205 194.5 205H185.5C178.873 205 173.5 210.373 173.5 217C173.5 223.627 178.873 229 185.5 229H327.5C334.127 229 339.5 234.373 339.5 241C339.5 247.627 334.127 253 327.5 253H321.5C314.873 253 309.5 258.373 309.5 265C309.5 271.627 314.873 277 321.5 277H397.5C404.127 277 409.5 271.627 409.5 265C409.5 258.373 404.127 253 397.5 253H396.5L396.499 252.99C390.104 252.727 385 247.46 385 241C385 234.54 390.104 229.273 396.499 229.01L396.5 229H416.5C423.127 229 428.5 223.627 428.5 217C428.5 210.373 423.127 205 416.5 205H336.5V204.99C330.105 204.727 325 199.46 325 193C325 186.54 330.105 181.273 336.5 181.01V181H355.5C362.127 181 367.5 175.627 367.5 169ZM387.5 313C387.5 306.373 382.127 301 375.5 301H144.5C137.873 301 132.5 306.373 132.5 313C132.5 319.627 137.873 325 144.5 325H185.5C192.127 325 197.5 330.373 197.5 337C197.5 343.627 192.127 349 185.5 349H181.5C174.873 349 169.5 354.373 169.5 361C169.5 367.627 174.873 373 181.5 373H257.5C264.127 373 269.5 367.627 269.5 361C269.5 354.373 264.127 349 257.5 349H254.5L254.499 348.99C248.104 348.727 243 343.46 243 337C243 330.54 248.104 325.273 254.499 325.01L254.5 325H375.5C382.127 325 387.5 319.627 387.5 313ZM182.5 253C189.127 253 194.5 258.373 194.5 265C194.5 271.627 189.127 277 182.5 277H106.5C99.8726 277 94.5 271.627 94.5 265C94.5 258.373 99.8726 253 106.5 253H182.5ZM520.5 217C520.5 210.373 515.127 205 508.5 205H467.5C460.873 205 455.5 210.373 455.5 217C455.5 223.627 460.873 229 467.5 229H508.5C515.127 229 520.5 223.627 520.5 217ZM204.5 109C211.127 109 216.5 114.373 216.5 121C216.5 127.627 211.127 133 204.5 133H184.5C177.873 133 172.5 127.627 172.5 121C172.5 114.373 177.873 109 184.5 109H204.5ZM365.5 61C372.127 61 377.5 66.3726 377.5 73C377.5 79.6274 372.127 85 365.5 85H345.5C338.873 85 333.5 79.6274 333.5 73C333.5 66.3726 338.873 61 345.5 61H365.5ZM185.5 73C185.5 66.3726 180.127 61 173.5 61H153.5C146.873 61 141.5 66.3726 141.5 73C141.5 79.6274 146.873 85 153.5 85H173.5C180.127 85 185.5 79.6274 185.5 73Z" fill="#FFE6AE"/>
</svg>
