<svg width="795" height="75" viewBox="0 0 795 75" fill="none" xmlns="http://www.w3.org/2000/svg">
<path fill-rule="evenodd" clip-rule="evenodd" d="M0.172202 74.8354C0.166291 74.67 0.16333 74.5045 0.16333 74.3388C0.16333 33.7445 177.906 0.836311 397.163 0.836311C616.42 0.836311 794.163 33.7445 794.163 74.3388C794.163 74.5045 794.16 74.67 794.154 74.8354H729.774C729.781 74.6701 729.785 74.5045 729.785 74.3388C729.785 40.3274 580.865 12.7556 397.163 12.7556C213.461 12.7556 64.5417 40.3274 64.5417 74.3388C64.5417 74.5045 64.5452 74.6701 64.5523 74.8354H0.172202ZM80.1633 74.8354C80.1634 42.4697 221.865 16.2321 396.663 16.2321C571.461 16.2321 713.163 42.4697 713.163 74.8354H688.919C688.927 74.6701 688.931 74.5045 688.931 74.3388C688.931 44.4417 558.302 20.2052 397.163 20.2052C236.024 20.2052 105.396 44.4417 105.396 74.3388C105.396 74.5045 105.4 74.6701 105.408 74.8354H80.1633Z" fill="#B87D43"/>
</svg>
