<svg width="794" height="74" viewBox="0 0 794 74" fill="none" xmlns="http://www.w3.org/2000/svg">
<g clip-path="url(#clip0_64_2)">
<path d="M397 0.157074C616.257 0.157074 794 33.0657 794 73.66C793.999 114.254 616.256 147.162 397 147.162C177.744 147.162 0.0012473 114.254 0 73.66C0 33.0657 177.743 0.157074 397 0.157074ZM397 12.076C213.298 12.076 64.3779 39.6486 64.3779 73.66C64.3792 107.671 213.299 135.243 397 135.243C580.701 135.243 729.621 107.671 729.622 73.66C729.622 39.6486 580.702 12.076 397 12.076ZM396.5 14.5594C571.298 14.5594 712.999 40.7973 713 73.1629C712.999 105.529 571.298 131.766 396.5 131.766C221.702 131.766 80.0005 105.529 80 73.1629C80.0005 40.7973 221.702 14.5594 396.5 14.5594ZM397 19.5262C235.862 19.5262 105.234 43.7621 105.232 73.659C105.232 103.556 235.861 127.793 397 127.793C558.139 127.793 688.768 103.556 688.768 73.659C688.766 43.7621 558.138 19.5262 397 19.5262Z" fill="#B87D43"/>
</g>
<defs>
<clipPath id="clip0_64_2">
<rect width="794" height="73.505" fill="white" transform="translate(0 0.157074)"/>
</clipPath>
</defs>
</svg>
