<svg width="871" height="416" viewBox="0 0 871 416" fill="none" xmlns="http://www.w3.org/2000/svg">
<path fill-rule="evenodd" clip-rule="evenodd" d="M168 332C174.627 332 180 326.627 180 320C180 313.373 174.627 308 168 308H12C5.37258 308 0 313.373 0 320C0 326.627 5.37258 332 12 332H168ZM388 332C394.627 332 400 326.627 400 320C400 313.373 394.627 308 388 308H310L310 307.99C303.605 307.728 298.5 302.46 298.5 296C298.5 289.54 303.605 284.272 310 284.01L310 284H470C476.627 284 482 278.627 482 272C482 265.373 476.627 260 470 260H213C206.373 260 201 265.373 201 272C201 278.627 206.373 284 213 284H262C268.627 284 274 289.373 274 296C274 302.627 268.627 308 262 308H232C225.373 308 220 313.373 220 320C220 326.627 225.373 332 232 332H388ZM183 236C189.627 236 195 230.627 195 224C195 217.373 189.627 212 183 212H110C103.373 212 98 217.373 98 224C98 230.627 103.373 236 110 236H183ZM470 236C476.627 236 482 230.627 482 224C482 217.373 476.627 212 470 212H397C390.373 212 385 217.373 385 224C385 230.627 390.373 236 397 236H470ZM734 224C734 230.627 728.627 236 722 236L556 236C549.373 236 544 230.627 544 224C544 217.373 549.373 212 556 212L722 212C728.627 212 734 217.373 734 224ZM544 308C550.627 308 556 302.627 556 296C556 289.373 550.627 284 544 284H535C528.373 284 523 278.627 523 272C523 265.373 528.373 260 535 260L792 260C798.627 260 804 265.373 804 272C804 278.627 798.627 284 792 284H592L592 284.01C585.605 284.272 580.5 289.54 580.5 296C580.5 302.46 585.605 307.728 592 307.99L592 308H616C622.627 308 628 313.373 628 320C628 326.627 622.627 332 616 332L460 332C453.373 332 448 326.627 448 320C448 313.373 453.373 308 460 308H544ZM842 320C842 326.627 836.627 332 830 332H674C667.373 332 662 326.627 662 320C662 313.373 667.373 308 674 308H830C836.627 308 842 313.373 842 320Z" fill="#ECB55A"/>
</svg>
