<svg width="794" height="74" viewBox="0 0 794 74" fill="none" xmlns="http://www.w3.org/2000/svg">
<g clip-path="url(#clip0_64_2)">
<path d="M397 -73C616.257 -73 794 -40.0914 794 0.50293C793.999 41.097 616.256 74.0049 397 74.0049C177.744 74.0049 0.0012473 41.097 0 0.50293C0 -40.0914 177.743 -73 397 -73ZM397 -61.0811C213.298 -61.0811 64.3779 -33.5085 64.3779 0.50293C64.3792 34.5142 213.299 62.0859 397 62.0859C580.701 62.0859 729.621 34.5142 729.622 0.50293C729.622 -33.5085 580.702 -61.0811 397 -61.0811ZM396.5 -58.5977C571.298 -58.5977 712.999 -32.3598 713 0.00585938C712.999 32.3715 571.298 58.6094 396.5 58.6094C221.702 58.6094 80.0005 32.3715 80 0.00585937C80.0005 -32.3598 221.702 -58.5977 396.5 -58.5977ZM397 -53.6309C235.862 -53.6309 105.234 -29.395 105.232 0.501953C105.232 30.3991 235.861 54.6357 397 54.6357C558.139 54.6357 688.768 30.3991 688.768 0.501953C688.766 -29.395 558.138 -53.6309 397 -53.6309Z" fill="#B87D43"/>
</g>
<defs>
<clipPath id="clip0_64_2">
<rect width="794" height="73.505" fill="white" transform="translate(0 0.157074)"/>
</clipPath>
</defs>
</svg>
