<svg width="795" height="75" viewBox="0 0 795 75" fill="none" xmlns="http://www.w3.org/2000/svg">
<path fill-rule="evenodd" clip-rule="evenodd" d="M0.846031 0.162933C0.840119 0.328349 0.837158 0.493895 0.837158 0.659569C0.837158 41.2539 178.58 74.1621 397.837 74.1621C617.094 74.1621 794.837 41.2539 794.837 0.659569C794.837 0.493895 794.834 0.328349 794.828 0.162933L730.448 0.162933C730.455 0.328324 730.459 0.49387 730.459 0.659569C730.459 34.671 581.539 62.2427 397.837 62.2427C214.135 62.2427 65.2155 34.671 65.2155 0.659569C65.2155 0.49387 65.2191 0.328324 65.2261 0.162933L0.846031 0.162933ZM80.8372 0.162933C80.8372 32.5287 222.539 58.7663 397.337 58.7663C572.135 58.7663 713.837 32.5287 713.837 0.162933L689.593 0.162933C689.601 0.328302 689.605 0.493849 689.605 0.659569C689.605 30.5567 558.976 54.7932 397.837 54.7932C236.698 54.7932 106.069 30.5567 106.069 0.659569C106.069 0.493849 106.073 0.328302 106.082 0.162933L80.8372 0.162933Z" fill="#B87D43"/>
</svg>
