<svg width="873" height="582" viewBox="0 0 873 582" fill="none" xmlns="http://www.w3.org/2000/svg">
<path fill-rule="evenodd" clip-rule="evenodd" d="M674 438C667.373 438 662 443.373 662 450C662 456.627 667.373 462 674 462H830C836.627 462 842 456.627 842 450C842 443.373 836.627 438 830 438H674ZM454 438C447.373 438 442 443.373 442 450C442 456.627 447.373 462 454 462H532L532 462.01C538.395 462.272 543.5 467.54 543.5 474C543.5 480.46 538.395 485.728 532 485.99L532 486H372C365.373 486 360 491.373 360 498C360 504.627 365.373 510 372 510H629C635.627 510 641 504.627 641 498C641 491.373 635.627 486 629 486H580C573.373 486 568 480.627 568 474C568 467.373 573.373 462 580 462H610C616.627 462 622 456.627 622 450C622 443.373 616.627 438 610 438H454ZM659 534C652.373 534 647 539.373 647 546C647 552.627 652.373 558 659 558H732C738.627 558 744 552.627 744 546C744 539.373 738.627 534 732 534H659ZM372 534C365.373 534 360 539.373 360 546C360 552.627 365.373 558 372 558H445C451.627 558 457 552.627 457 546C457 539.373 451.627 534 445 534H372ZM108 546C108 539.373 113.373 534 120 534H286C292.627 534 298 539.373 298 546C298 552.627 292.627 558 286 558H120C113.373 558 108 552.627 108 546ZM298 462C291.373 462 286 467.373 286 474C286 480.627 291.373 486 298 486H307C313.627 486 319 491.373 319 498C319 504.627 313.627 510 307 510H50C43.3726 510 38 504.627 38 498C38 491.373 43.3726 486 50 486H250L250 485.99C256.395 485.728 261.5 480.46 261.5 474C261.5 467.54 256.395 462.272 250 462.01L250 462H226C219.373 462 214 456.627 214 450C214 443.373 219.373 438 226 438H382C388.627 438 394 443.373 394 450C394 456.627 388.627 462 382 462H298ZM0 450C0 443.373 5.37256 438 12 438H168C174.627 438 180 443.373 180 450C180 456.627 174.627 462 168 462H12C5.37256 462 0 456.627 0 450Z" fill="#D89D6D"/>
<path fill-rule="evenodd" clip-rule="evenodd" d="M227 222C233.627 222 239 227.373 239 234C239 240.627 233.627 246 227 246H217C210.373 246 205 251.373 205 258C205 264.627 210.373 270 217 270H306C312.627 270 318 264.627 318 258C318 251.373 312.627 246 306 246H296L295.999 245.99C289.604 245.727 284.5 240.46 284.5 234C284.5 227.54 289.604 222.273 295.999 222.01L296 222H361C367.627 222 373 216.627 373 210C373 203.373 367.627 198 361 198H162C155.373 198 150 203.373 150 210C150 216.627 155.373 222 162 222H227ZM181 258C181 251.373 175.627 246 169 246H107C100.373 246 95 251.373 95 258C95 264.627 100.373 270 107 270H169C175.627 270 181 264.627 181 258ZM59 246C65.6274 246 71 251.373 71 258C71 264.627 65.6274 270 59 270H31C24.3726 270 19 264.627 19 258C19 251.373 24.3726 246 31 246H59ZM534 258C534 251.373 528.627 246 522 246H354C347.373 246 342 251.373 342 258C342 264.627 347.373 270 354 270H522C528.627 270 534 264.627 534 258ZM598 246C604.627 246 610 251.373 610 258C610 264.627 604.627 270 598 270H570C563.373 270 558 264.627 558 258C558 251.373 563.373 246 570 246H598ZM563 210C563 203.373 557.627 198 551 198H409C402.373 198 397 203.373 397 210C397 216.627 402.373 222 409 222H551C557.627 222 563 216.627 563 210ZM649 198C655.627 198 661 203.373 661 210C661 216.627 655.627 222 649 222H599C592.373 222 587 216.627 587 210C587 203.373 592.373 198 599 198H649ZM102 210C102 203.373 96.6274 198 90 198H62C55.3726 198 50 203.373 50 210C50 216.627 55.3726 222 62 222H90C96.6274 222 102 216.627 102 210Z" fill="#D89D6D"/>
</svg>
