<svg width="876" height="582" viewBox="0 0 876 582" fill="none" xmlns="http://www.w3.org/2000/svg">
<path fill-rule="evenodd" clip-rule="evenodd" d="M168 294C174.627 294 180 299.373 180 306C180 312.627 174.627 318 168 318H12C5.37258 318 0 312.627 0 306C0 299.373 5.37258 294 12 294H168ZM388 294C394.627 294 400 299.373 400 306C400 312.627 394.627 318 388 318H310L310 318.01C303.605 318.272 298.5 323.54 298.5 330C298.5 336.46 303.605 341.728 310 341.99L310 342H470C476.627 342 482 347.373 482 354C482 360.627 476.627 366 470 366H213C206.373 366 201 360.627 201 354C201 347.373 206.373 342 213 342H262C268.627 342 274 336.627 274 330C274 323.373 268.627 318 262 318H232C225.373 318 220 312.627 220 306C220 299.373 225.373 294 232 294H388ZM183 390C189.627 390 195 395.373 195 402C195 408.627 189.627 414 183 414H110C103.373 414 98 408.627 98 402C98 395.373 103.373 390 110 390H183ZM470 390C476.627 390 482 395.373 482 402C482 408.627 476.627 414 470 414H397C390.373 414 385 408.627 385 402C385 395.373 390.373 390 397 390H470ZM734 402C734 395.373 728.627 390 722 390H556C549.373 390 544 395.373 544 402C544 408.627 549.373 414 556 414H722C728.627 414 734 408.627 734 402ZM544 318C550.627 318 556 323.373 556 330C556 336.627 550.627 342 544 342H535C528.373 342 523 347.373 523 354C523 360.627 528.373 366 535 366H792C798.627 366 804 360.627 804 354C804 347.373 798.627 342 792 342H592L592 341.99C585.605 341.728 580.5 336.46 580.5 330C580.5 323.54 585.605 318.272 592 318.01L592 318H616C622.627 318 628 312.627 628 306C628 299.373 622.627 294 616 294H460C453.373 294 448 299.373 448 306C448 312.627 453.373 318 460 318H544ZM842 306C842 299.373 836.627 294 830 294H674C667.373 294 662 299.373 662 306C662 312.627 667.373 318 674 318H830C836.627 318 842 312.627 842 306Z" fill="#F0D29F"/>
</svg>
