<svg width="867" height="582" viewBox="0 0 867 582" fill="none" xmlns="http://www.w3.org/2000/svg">
<path fill-rule="evenodd" clip-rule="evenodd" d="M674 54C667.373 54 662 59.3726 662 66C662 72.6274 667.373 78 674 78H830C836.627 78 842 72.6274 842 66C842 59.3726 836.627 54 830 54H674ZM454 54C447.373 54 442 59.3726 442 66C442 72.6274 447.373 78 454 78H532L532 78.0102C538.395 78.2721 543.5 83.5399 543.5 90C543.5 96.4601 538.395 101.728 532 101.99L532 102H372C365.373 102 360 107.373 360 114C360 120.627 365.373 126 372 126H629C635.627 126 641 120.627 641 114C641 107.373 635.627 102 629 102H580C573.373 102 568 96.6274 568 90C568 83.3726 573.373 78 580 78H610C616.627 78 622 72.6274 622 66C622 59.3726 616.627 54 610 54H454ZM659 150C652.373 150 647 155.373 647 162C647 168.627 652.373 174 659 174H732C738.627 174 744 168.627 744 162C744 155.373 738.627 150 732 150H659ZM372 150C365.373 150 360 155.373 360 162C360 168.627 365.373 174 372 174H445C451.627 174 457 168.627 457 162C457 155.373 451.627 150 445 150H372ZM108 162C108 155.373 113.373 150 120 150H286C292.627 150 298 155.373 298 162C298 168.627 292.627 174 286 174H120C113.373 174 108 168.627 108 162ZM298 78C291.373 78 286 83.3726 286 90C286 96.6274 291.373 102 298 102H307C313.627 102 319 107.373 319 114C319 120.627 313.627 126 307 126H50C43.3726 126 38 120.627 38 114C38 107.373 43.3726 102 50 102H250L250 101.99C256.395 101.728 261.5 96.4601 261.5 90C261.5 83.5399 256.395 78.2721 250 78.0102L250 78H226C219.373 78 214 72.6274 214 66C214 59.3726 219.373 54 226 54H382C388.627 54 394 59.3726 394 66C394 72.6274 388.627 78 382 78H298ZM0 66C0 59.3726 5.37256 54 12 54H168C174.627 54 180 59.3726 180 66C180 72.6274 174.627 78 168 78H12C5.37256 78 0 72.6274 0 66Z" fill="#DC8E61"/>
</svg>
