<svg width="794" height="582" viewBox="0 0 794 582" fill="none" xmlns="http://www.w3.org/2000/svg">
<path d="M53 402C53 395.373 47.6274 390 41 390H12C5.37258 390 0 384.627 0 378C0 371.373 5.37258 366 12 366H113C119.627 366 125 371.373 125 378C125 384.627 119.627 390 113 390H110L109.999 390.01C103.604 390.273 98.5003 395.54 98.5003 402C98.5003 408.46 103.604 413.727 109.999 413.99L110 414H113C119.627 414 125 419.373 125 426C125 432.627 119.627 438 113 438H37C30.3726 438 25 432.627 25 426C25 419.373 30.3726 414 37 414H41C47.6274 414 53 408.627 53 402Z" fill="#D86534"/>
<path fill-rule="evenodd" clip-rule="evenodd" d="M12 366C5.37258 366 0 371.373 0 378C0 384.627 5.37259 390 12 390H113C119.627 390 125 384.627 125 378C125 371.373 119.627 366 113 366H12ZM37 414C30.3726 414 25 419.373 25 426C25 432.627 30.3726 438 37 438H113C119.627 438 125 432.627 125 426C125 419.373 119.627 414 113 414H37Z" fill="#D86534"/>
</svg>
