<svg width="722" height="450" viewBox="0 0 722 450" fill="none" xmlns="http://www.w3.org/2000/svg">
<path fill-rule="evenodd" clip-rule="evenodd" d="M229 27C229 20.3726 223.627 15 217 15H12C5.37258 15 0 20.3726 0 27C0 33.6274 5.37258 39 12 39H60C66.6274 39 72 44.3726 72 51C72 57.6274 66.6274 63 60 63H54C47.3726 63 42 68.3726 42 75C42 81.6274 47.3726 87 54 87H50C56.6274 87 62 92.3726 62 99C62 105.627 56.6274 111 50 111H40C33.3726 111 28 116.373 28 123C28 129.627 33.3726 135 40 135H159C165.627 135 171 129.627 171 123C171 116.373 165.627 111 159 111H154L154 110.99C147.605 110.728 142.5 105.46 142.5 99C142.5 92.5402 147.605 87.2725 154 87.0102L154 87H223C229.627 87 235 81.6274 235 75C235 68.3726 229.627 63 223 63H216L216 62.9898C209.605 62.7275 204.5 57.4598 204.5 51C204.5 44.5402 209.605 39.2725 216 39.0102L216 39H217C223.627 39 229 33.6274 229 27ZM139 159C145.627 159 151 164.373 151 171C151 177.627 145.627 183 139 183C132.373 183 127 177.627 127 171C127 164.373 132.373 159 139 159ZM102 195C102 188.373 96.6274 183 90 183H55C48.3726 183 43 188.373 43 195C43 201.627 48.3726 207 55 207H90C96.6274 207 102 201.627 102 195ZM187 339C187 345.627 181.627 351 175 351H180C173.373 351 168 356.373 168 363C168 369.627 173.373 375 180 375H209C215.627 375 221 369.627 221 363C221 356.373 215.627 351 209 351H213V350.99C206.605 350.728 201.5 345.46 201.5 339C201.5 332.54 206.605 327.272 213 327.01V327H240C246.627 327 252 321.627 252 315C252 308.373 246.627 303 240 303L240 302.99C233.605 302.728 228.5 297.46 228.5 291C228.5 284.54 233.605 279.272 240 279.01L240 279H246C252.627 279 258 273.627 258 267C258 260.373 252.627 255 246 255H195V254.99C188.605 254.727 183.5 249.46 183.5 243C183.5 236.54 188.605 231.273 195 231.01V231H193C199.627 231 205 225.627 205 219C205 212.373 199.627 207 193 207H144C137.373 207 132 212.373 132 219C132 225.627 137.373 231 144 231C150.627 231 156 236.373 156 243C156 249.627 150.627 255 144 255C137.373 255 132 260.373 132 267C132 273.627 137.373 279 144 279H154C160.627 279 166 284.373 166 291C166 297.627 160.627 303 154 303H156C149.373 303 144 308.373 144 315C144 321.627 149.373 327 156 327H175C181.627 327 187 332.373 187 339Z" fill="#4FCDF9"/>
<path fill-rule="evenodd" clip-rule="evenodd" d="M463 51C463 44.3726 457.627 39 451 39H427C420.373 39 415 44.3726 415 51C415 57.6274 420.373 63 427 63H451C457.627 63 463 57.6274 463 51ZM701 63C707.627 63 713 68.3726 713 75C713 81.6274 707.627 87 701 87H694V87.0102C687.605 87.2725 682.5 92.5402 682.5 99C682.5 105.46 687.605 110.728 694 110.99V111H710C716.627 111 722 116.373 722 123C722 129.627 716.627 135 710 135H536C529.373 135 524 129.627 524 123C524 116.373 529.373 111 536 111H531C537.627 111 543 105.627 543 99C543 92.3726 537.627 87 531 87H490C483.373 87 478 81.6274 478 75C478 68.3726 483.373 63 490 63H701ZM431 327C437.627 327 443 321.627 443 315C443 308.373 437.627 303 431 303C424.373 303 419 297.627 419 291C419 284.373 424.373 279 431 279H428C434.627 279 440 273.627 440 267C440 260.373 434.627 255 428 255H383C376.373 255 371 249.627 371 243C371 236.373 376.373 231 383 231C389.627 231 395 225.627 395 219C395 212.373 389.627 207 383 207H349C342.373 207 337 201.627 337 195C337 188.373 342.373 183 349 183H375C381.627 183 387 177.627 387 171C387 164.373 381.627 159 375 159C368.373 159 363 153.627 363 147C363 140.373 368.373 135 375 135H431C437.627 135 443 140.373 443 147C443 153.627 437.627 159 431 159L430.999 159.01C424.604 159.273 419.5 164.54 419.5 171C419.5 177.46 424.604 182.727 430.999 182.99L431 183H522C528.627 183 534 188.373 534 195C534 201.627 528.627 207 522 207H502L502 207.01C495.605 207.273 490.5 212.54 490.5 219C490.5 225.46 495.605 230.727 502 230.99L502 231H512C518.627 231 524 236.373 524 243C524 249.627 518.627 255 512 255H497L496.999 255.01C490.604 255.273 485.5 260.54 485.5 267C485.5 273.46 490.604 278.727 496.999 278.99L497 279H495C501.627 279 507 284.373 507 291C507 297.627 501.627 303 495 303H475L475 303.01C468.605 303.272 463.5 308.54 463.5 315C463.5 321.46 468.605 326.728 475 326.99L475 327H471C477.627 327 483 332.373 483 339C483 345.627 477.627 351 471 351H435C428.373 351 423 345.627 423 339C423 332.373 428.373 327 435 327H431ZM521 303C527.627 303 533 308.373 533 315C533 321.627 527.627 327 521 327C514.373 327 509 321.627 509 315C509 308.373 514.373 303 521 303ZM515 147C515 140.373 509.627 135 503 135H489C482.373 135 477 140.373 477 147C477 153.627 482.373 159 489 159H503C509.627 159 515 153.627 515 147ZM412 99C412 92.3726 406.627 87 400 87H376C369.373 87 364 92.3726 364 99C364 105.627 369.373 111 376 111H400C406.627 111 412 105.627 412 99ZM438 87C444.627 87 450 92.3726 450 99C450 105.627 444.627 111 438 111H435C428.373 111 423 105.627 423 99C423 92.3726 428.373 87 435 87H438Z" fill="#4FCDF9"/>
</svg>
