<svg width="507" height="450" viewBox="0 0 507 450" fill="none" xmlns="http://www.w3.org/2000/svg">
<g clip-path="url(#clip0_43_6)">
<path fill-rule="evenodd" clip-rule="evenodd" d="M302 51C302 44.3726 296.627 39 290 39H170C163.373 39 158 33.6274 158 27C158 20.3726 163.373 15 170 15H219C225.627 15 231 9.62742 231 3C231 -3.62742 225.627 -9 219 -9H203C196.373 -9 191 -14.3726 191 -21C191 -27.6274 196.373 -33 203 -33H265C271.627 -33 277 -27.6274 277 -21C277 -14.3726 271.627 -9 265 -9H267L267 -8.98979C260.605 -8.72785 255.5 -3.46005 255.5 3C255.5 9.46005 260.605 14.7279 267 14.9898L267 15H427C433.627 15 439 20.3726 439 27C439 33.6274 433.627 39 427 39H359L358.999 39.0103C352.604 39.273 347.5 44.5405 347.5 51C347.5 57.4595 352.604 62.727 358.999 62.9897L359 63H362C368.627 63 374 68.3726 374 75C374 81.6274 368.627 87 362 87H286C279.373 87 274 81.6274 274 75C274 68.3726 279.373 63 286 63H290C296.627 63 302 57.6274 302 51ZM408 111C414.627 111 420 116.373 420 123C420 129.627 414.627 135 408 135H346C339.373 135 334 129.627 334 123C334 116.373 339.373 111 346 111H408ZM442 75C442 68.3726 436.627 63 430 63H410C403.373 63 398 68.3726 398 75C398 81.6274 403.373 87 410 87H430C436.627 87 442 81.6274 442 75ZM238 63C244.627 63 250 68.3726 250 75C250 81.6274 244.627 87 238 87H218C211.373 87 206 81.6274 206 75C206 68.3726 211.373 63 218 63H238ZM481 -21C481 -27.6274 475.627 -33 469 -33H313C306.373 -33 301 -27.6274 301 -21C301 -14.3726 306.373 -9 313 -9H469C475.627 -9 481 -14.3726 481 -21Z" fill="white"/>
<path fill-rule="evenodd" clip-rule="evenodd" d="M80 351C86.6274 351 92 356.373 92 363C92 369.627 86.6274 375 80 375H76C69.3726 375 64 380.373 64 387C64 393.627 69.3726 399 76 399H152C158.627 399 164 393.627 164 387C164 380.373 158.627 375 152 375H149L148.999 374.99C142.604 374.727 137.5 369.46 137.5 363C137.5 356.54 142.604 351.273 148.999 351.01L149 351H175C181.627 351 187 345.627 187 339C187 332.373 181.627 327 175 327H161L161 326.99C154.605 326.728 149.5 321.46 149.5 315C149.5 308.54 154.605 303.272 161 303.01L161 303H208C214.627 303 220 297.627 220 291C220 284.373 214.627 279 208 279H90C83.3726 279 78 284.373 78 291C78 297.627 83.3726 303 90 303H113C119.627 303 125 308.373 125 315C125 321.627 119.627 327 113 327H12C5.37258 327 0 332.373 0 339C0 345.627 5.37258 351 12 351H80ZM255 339C255 332.373 249.627 327 243 327H223C216.373 327 211 332.373 211 339C211 345.627 216.373 351 223 351H243C249.627 351 255 345.627 255 339Z" fill="white"/>
<path fill-rule="evenodd" clip-rule="evenodd" d="M332 447C338.627 447 344 452.373 344 459C344 465.627 338.627 471 332 471H328C321.373 471 316 476.373 316 483C316 489.627 321.373 495 328 495H404C410.627 495 416 489.627 416 483C416 476.373 410.627 471 404 471H401L400.999 470.99C394.604 470.727 389.5 465.46 389.5 459C389.5 452.54 394.604 447.273 400.999 447.01L401 447H427C433.627 447 439 441.627 439 435C439 428.373 433.627 423 427 423H413L413 422.99C406.605 422.728 401.5 417.46 401.5 411C401.5 404.54 406.605 399.272 413 399.01L413 399H460C466.627 399 472 393.627 472 387C472 380.373 466.627 375 460 375H342C335.373 375 330 380.373 330 387C330 393.627 335.373 399 342 399H365C371.627 399 377 404.373 377 411C377 417.627 371.627 423 365 423H264C257.373 423 252 428.373 252 435C252 441.627 257.373 447 264 447H332ZM507 435C507 428.373 501.627 423 495 423H475C468.373 423 463 428.373 463 435C463 441.627 468.373 447 475 447H495C501.627 447 507 441.627 507 435Z" fill="white"/>
</g>
<defs>
<clipPath id="clip0_43_6">
<rect width="507" height="450" fill="white"/>
</clipPath>
</defs>
</svg>
